# File produced by Open Asset Import Library (http://www.assimp.sf.net)
# (assimp v3.1.206520482)

mtllib elevatorbox_anddoor.mtl

# 62 vertex positions
v 9.5851 -0.439957 -40.1697
v 9.5851 1.11056 -40.1697
v 9.5851 1.11056 -38.5307
v 9.5851 -0.439957 -38.5307
v -35.4253 -0.439957 -38.5307
v -35.4253 1.11056 -38.5307
v -36.9703 1.11056 -38.5307
v -36.9703 -0.439957 -38.5307
v -36.9703 -0.439959 -66.1117
v -36.9703 1.11055 -66.1117
v -36.9703 1.11055 -67.7506
v -36.9703 -0.43996 -67.7506
v 8.04009 -0.43996 -67.7506
v 8.04009 1.11055 -67.7506
v 9.5851 1.11055 -67.7506
v 9.5851 -0.43996 -67.7506
v -35.4253 1.11055 -66.1117
v -35.4253 1.11055 -67.7506
v 9.5851 -0.439959 -66.1117
v 8.04009 -0.439959 -66.1117
v -35.4253 -0.439959 -66.1117
v -35.4253 -0.43996 -67.7506
v 8.04009 1.11056 -38.5307
v 8.04009 50.68 -38.5307
v -35.4253 50.68 -38.5307
v 8.04009 1.11055 -66.1117
v 8.04009 -0.439957 -38.5307
v -36.9703 50.68 -38.5307
v -35.4253 1.11056 -40.1697
v 8.04009 1.11056 -40.1697
v 8.04009 50.68 -40.1697
v 8.04009 50.68 -66.1117
v 9.5851 50.68 -38.5307
v -35.4253 -0.439957 -40.1697
v 8.04009 -0.439957 -40.1697
v -36.9703 -0.439957 -40.1697
v -36.9703 1.11056 -40.1697
v -36.9703 50.68 -40.1697
v -36.9703 50.68 -66.1117
v -35.4253 50.68 -66.1117
v 9.5851 1.11055 -66.1117
v 9.5851 50.68 -66.1117
v 9.5851 50.68 -67.7506
v 8.04009 50.68 -67.7506
v -35.4253 50.68 -40.1697
v 9.5851 50.68 -40.1697
v -33.848 46.8968 -65.1245
v 6.46281 46.8968 -65.1245
v 6.46281 49.1038 -41.1568
v -33.848 49.1038 -41.1568
v 6.46281 50.974 -41.1568
v 6.46281 48.767 -65.1245
v -33.848 48.767 -65.1245
v -33.848 50.974 -41.1568
v -32.4348 0.0420246 -69.7422
v -32.4348 0.0420246 -67.2598
v -32.4348 47.2329 -67.2598
v -32.4348 47.2329 -69.7422
v 5.61827 0.0420246 -69.7422
v 5.61827 47.2329 -69.7422
v 5.61827 0.0420246 -67.2598
v 5.61827 47.2329 -67.2598

# 124 UV coordinates
vt 0.738424 0.130948 0
vt 0.731077 0.130948 0
vt 0.731077 0.138714 0
vt 0.738424 0.138714 0
vt 0.999742 0.615816 0
vt 0.999742 0.608469 0
vt 0.992421 0.608469 0
vt 0.992421 0.615816 0
vt 0.496199 0.769869 0
vt 0.503546 0.769869 0
vt 0.503546 0.762103 0
vt 0.496199 0.762103 0
vt 0.445299 0.77271 0
vt 0.452646 0.77271 0
vt 0.452646 0.765389 0
vt 0.445299 0.765389 0
vt 0.992421 0.00802437 0
vt 0.999742 0.0080243 0
vt 0.999742 0.000258269 0
vt 0.992421 0.000258405 0
vt 0.738424 0.00802449 0
vt 0.745745 0.00802445 0
vt 0.745745 0.000258503 0
vt 0.738424 0.000258486 0
vt 0.999742 0.746508 0
vt 0.992421 0.746508 0
vt 0.992421 0.754274 0
vt 0.999742 0.754274 0
vt 0.493676 0.702654 0
vt 0.254676 0.75586 0
vt 0.256682 0.764872 0
vt 0.495682 0.711667 0
vt 0.219016 0.595676 0
vt 0.458016 0.542471 0
vt 0.397339 0.269907 0
vt 0.158339 0.323112 0
vt 0.132953 0.00785474 0
vt 0.33168 0.0181191 0
vt 0.334807 0.0107956 0
vt 0.13335 0.000258269 0
vt 0.503546 0.754782 0
vt 0.496199 0.754782 0
vt 0.96997 0.315273 0
vt 0.962623 0.315273 0
vt 0.962623 0.521226 0
vt 0.96997 0.521226 0
vt 0.738424 0.146061 0
vt 0.745745 0.146061 0
vt 0.745745 0.138714 0
vt 0.459914 0.550997 0
vt 0.220914 0.604202 0
vt 0.999742 0.373587 0
vt 0.992421 0.373587 0
vt 0.191605 0.100393 0
vt 0.289221 0.111033 0
vt 0.395333 0.260895 0
vt 0.490546 0.171462 0
vt 0.738424 0.38094 0
vt 0.745744 0.38094 0
vt 0.222921 0.613215 0
vt 0.461921 0.560009 0
vt 0.992421 0.623582 0
vt 0.999742 0.623582 0
vt 0.745745 0.130948 0
vt 0.503546 0.892791 0
vt 0.738424 0.892791 0
vt 0.738424 0.769869 0
vt 0.992421 0.242899 0
vt 0.999742 0.242899 0
vt 0.496199 0.900557 0
vt 0.503546 0.900557 0
vt 0.496199 0.892791 0
vt 0.731077 0.000258435 0
vt 0.731077 0.00802448 0
vt 0.745744 0.511627 0
vt 0.738424 0.511627 0
vt 0.738424 0.519392 0
vt 0.745744 0.519392 0
vt 0.156333 0.3141 0
vt 0.738424 0.388706 0
vt 0.745744 0.388706 0
vt 0.999741 0.365821 0
vt 0.992421 0.365821 0
vt 0.496199 0.130947 0
vt 0.496199 0.138712 0
vt 0.000258269 0.255015 0
vt 0.496199 0.00802376 0
vt 0.738424 0.900557 0
vt 0.495682 0.166143 0
vt 0.496199 0.000258269 0
vt 0.738425 0.754265 0
vt 0.745745 0.754265 0
vt 0.444783 0.765389 0
vt 0.444783 0.956396 0
vt 0.330735 0.956396 0
vt 0.330735 0.765389 0
vt 0.139211 0.879437 0
vt 0.139211 0.765389 0
vt 0.330218 0.765389 0
vt 0.330218 0.879437 0
vt 0.127391 0.966214 0
vt 0.138695 0.97693 0
vt 0.00443051 0.964268 0
vt 0.0134744 0.953223 0
vt 0.129544 0.785444 0
vt 0.138695 0.776735 0
vt 0.0122311 0.779352 0
vt 0.000258269 0.765389 0
vt 0.976505 0.0413567 0
vt 0.991904 0.0241179 0
vt 0.991904 0.314757 0
vt 0.97355 0.297505 0
vt 0.962106 0.851142 0
vt 0.746262 0.851142 0
vt 0.746262 0.583466 0
vt 0.962106 0.583466 0
vt 0.746262 0.000258269 0
vt 0.764616 0.0175102 0
vt 0.761661 0.273658 0
vt 0.746262 0.290897 0
vt 0.962106 0.582949 0
vt 0.746262 0.582949 0
vt 0.746262 0.315273 0
vt 0.962106 0.315273 0

# 21 vertex normals
vn 1 2.86151e-14 1.75638e-07
vn 0 1.62921e-07 1
vn -1 -1.1037e-13 -6.77448e-07
vn 0 -1.62921e-07 -1
vn 0 1 -1.34509e-07
vn -5.7467e-08 -1 1.91332e-07
vn 5.7467e-08 -1 1.91332e-07
vn 0 -1 1.91332e-07
vn 0 1 -1.06097e-07
vn 0 1 -1.62921e-07
vn -1 0 -0
vn 0 -1 1.34509e-07
vn 5.7467e-08 -1 1.34509e-07
vn -5.74671e-08 -1 1.34509e-07
vn -1 1.1037e-13 6.77448e-07
vn 1 -2.86151e-14 -1.75638e-07
vn 1 0 0
vn 0 -0.995787 0.0916935
vn 0 0.995787 -0.0916935
vn 1 4.23134e-15 2.59718e-08
vn 0 -1 1.62921e-07

# Mesh 'elevatorcube_elevatorcube' with 100 faces
g elevatorcube_elevatorcube
usemtl 1001
f 1/1/1 2/2/1 3/3/1
f 3/3/1 4/4/1 1/1/1
f 5/5/2 6/6/2 7/7/2
f 7/7/2 8/8/2 5/5/2
f 9/9/3 10/10/3 11/11/3
f 11/11/3 12/12/3 9/9/3
f 13/13/4 14/14/4 15/15/4
f 15/15/4 16/16/4 13/13/4
f 10/17/5 17/18/5 18/19/5
f 18/19/5 11/20/5 10/17/5
f 19/21/6 20/22/6 13/23/6
f 13/23/6 16/24/6 19/21/6
f 21/25/7 9/26/7 12/27/7
f 12/27/7 22/28/7 21/25/7
f 20/29/8 21/30/8 22/31/8
f 22/31/8 13/32/8 20/29/8
f 6/33/2 23/34/2 24/35/2
f 24/35/2 25/36/2 6/33/2
f 17/37/9 26/38/9 14/39/9
f 14/39/9 18/40/9 17/37/9
f 12/12/4 11/11/4 18/41/4
f 18/41/4 22/42/4 12/12/4
f 22/43/4 18/44/4 14/45/4
f 14/45/4 13/46/4 22/43/4
f 4/4/2 3/47/2 23/48/2
f 23/48/2 27/49/2 4/4/2
f 27/50/2 23/34/2 6/33/2
f 6/33/2 5/51/2 27/50/2
f 7/7/2 6/6/2 25/52/2
f 25/52/2 28/53/2 7/7/2
f 29/54/10 30/55/10 26/38/10
f 26/38/10 17/37/10 29/54/10
f 26/38/11 30/55/11 31/56/11
f 31/56/11 32/57/11 26/38/11
f 23/48/2 3/47/2 33/58/2
f 33/58/2 24/59/2 23/48/2
f 27/50/12 5/51/12 34/60/12
f 34/60/12 35/61/12 27/50/12
f 35/61/12 34/60/12 21/30/8
f 21/30/8 20/29/8 35/61/12
f 5/5/13 8/8/13 36/62/13
f 36/62/13 34/63/13 5/5/13
f 34/63/13 36/62/13 9/26/7
f 9/26/7 21/25/7 34/63/13
f 4/4/14 27/49/14 35/64/14
f 35/64/14 1/1/14 4/4/14
f 1/1/14 35/64/14 20/22/6
f 20/22/6 19/21/6 1/1/14
f 10/10/3 37/65/11 38/66/11
f 38/66/11 39/67/11 10/10/3
f 17/18/4 10/17/4 39/68/4
f 39/68/4 40/69/4 17/18/4
f 8/70/15 7/71/15 37/65/11
f 37/65/11 36/72/15 8/70/15
f 36/72/15 37/65/11 10/10/3
f 10/10/3 9/9/3 36/72/15
f 16/24/16 15/73/16 41/74/16
f 41/74/16 19/21/16 16/24/16
f 19/21/16 41/74/16 2/2/1
f 2/2/1 1/1/1 19/21/16
f 32/75/10 42/76/10 43/77/10
f 43/77/10 44/78/10 32/75/10
f 25/36/10 24/35/10 31/56/10
f 31/56/10 45/79/10 25/36/10
f 24/59/10 33/58/10 46/80/10
f 46/80/10 31/81/10 24/59/10
f 31/81/10 46/80/10 42/76/10
f 42/76/10 32/75/10 31/81/10
f 28/53/10 25/52/10 45/82/10
f 45/82/10 38/83/10 28/53/10
f 38/83/10 45/82/10 40/69/10
f 40/69/10 39/68/10 38/83/10
f 3/3/1 2/2/1 46/84/17
f 46/84/17 33/85/17 3/3/1
f 29/54/17 17/37/17 40/86/17
f 40/86/17 45/79/17 29/54/17
f 2/2/1 41/74/16 42/87/17
f 42/87/17 46/84/17 2/2/1
f 37/65/11 7/71/15 28/88/11
f 28/88/11 38/66/11 37/65/11
f 30/55/4 29/54/4 45/79/4
f 45/79/4 31/56/4 30/55/4
f 14/39/11 26/38/11 32/57/11
f 32/57/11 44/89/11 14/39/11
f 41/74/16 15/73/16 43/90/17
f 43/90/17 42/87/17 41/74/16
f 15/91/4 14/92/4 44/78/4
f 44/78/4 43/77/4 15/91/4
f 47/93/18 48/94/18 49/95/18
f 49/95/18 50/96/18 47/93/18
f 51/97/19 52/98/19 53/99/19
f 53/99/19 54/100/19 51/97/19
f 53/101/11 47/102/11 50/103/11
f 50/103/11 54/104/11 53/101/11
f 52/105/4 48/106/4 47/102/4
f 47/102/4 53/101/4 52/105/4
f 51/107/20 49/108/20 48/106/20
f 48/106/20 52/105/20 51/107/20
f 54/104/2 50/103/2 49/108/2
f 49/108/2 51/107/2 54/104/2

# Mesh 'elevator_door_elevator_door' with 12 faces
g elevator_door_elevator_door
usemtl 1001
f 55/109/11 56/110/11 57/111/11
f 57/111/11 58/112/11 55/109/11
f 59/113/4 55/114/4 58/115/4
f 58/115/4 60/116/4 59/113/4
f 61/117/17 59/118/17 60/119/17
f 60/119/17 62/120/17 61/117/17
f 56/121/2 61/122/2 62/123/2
f 62/123/2 57/124/2 56/121/2
f 56/110/21 55/109/21 59/118/21
f 59/118/21 61/117/21 56/110/21
f 62/120/10 60/119/10 58/112/10
f 58/112/10 57/111/10 62/120/10

