# File produced by Open Asset Import Library (http://www.assimp.sf.net)
# (assimp v3.1.206520482)

mtllib mall_floor.mtl

# 116 vertex positions
v 9.82369 0.33519 -114.333
v 9.82369 0.335205 -67.6595
v 143.791 0.335205 -69.2263
v 143.791 0.33519 -114.333
v 89.0774 79.9624 -114.334
v 89.0774 79.9624 -84.9784
v 143.791 79.9624 -84.9784
v 143.791 79.9624 -114.334
v -213.575 79.9624 -114.334
v -213.575 79.9624 -84.9784
v -75.996 79.9624 -84.9784
v -75.996 79.9624 -114.334
v 10.3008 79.9624 -114.334
v 10.3008 79.9624 -67.5973
v -75.996 79.9624 52.4986
v -75.996 79.9624 111.209
v 89.0774 79.9624 111.209
v 89.0774 79.9624 52.4986
v -213.575 79.9624 52.4986
v -213.575 79.9624 111.209
v -213.575 79.9624 -55.6233
v -75.996 79.9624 -55.6233
v 143.791 79.9624 111.209
v 143.791 79.9624 52.4986
v 89.0774 79.9624 -55.6233
v 143.791 79.9624 -55.6233
v -75.769 64.9242 52.4986
v 89.0774 64.9242 52.4986
v 89.0774 64.9242 -55.6233
v -75.769 64.9268 -55.6233
v 89.0774 160.273 -114.334
v 89.0774 160.273 -84.9784
v 143.791 160.273 -84.9784
v 143.791 160.273 -114.334
v -213.575 160.273 -114.334
v -213.575 160.273 -84.9784
v -154.522 160.273 -84.9784
v -154.522 160.273 -114.334
v 10.4685 160.273 -114.334
v 12.1718 160.273 -67.5794
v -154.522 160.273 52.4986
v -154.522 160.273 111.209
v 89.0774 160.273 111.209
v 89.0774 160.273 52.4986
v -213.575 160.273 52.4986
v -213.575 160.273 111.209
v -213.575 160.273 -55.6233
v -154.522 160.273 -55.6233
v 143.791 160.273 111.209
v 143.791 160.273 52.4986
v 89.0774 160.273 -55.6233
v 143.791 160.273 -55.6233
v -38.6104 145.234 -55.6233
v -38.6104 160.273 -55.6233
v -154.522 145.234 -55.6233
v 89.0774 145.234 52.4986
v 89.0774 145.234 -55.6233
v -154.522 145.234 52.4986
v 89.0774 240.08 -114.334
v 89.0774 240.08 -84.9784
v 143.791 240.08 -84.9784
v 143.791 240.08 -114.334
v -213.575 240.08 -114.334
v -213.575 240.08 -84.9784
v -154.522 240.08 -84.9784
v -154.522 240.08 -114.334
v 10.7875 240.08 -114.334
v 10.7875 240.08 -68.3022
v -154.522 240.08 52.4986
v -154.522 240.08 111.209
v 89.0774 240.08 111.209
v 89.0774 240.08 52.4986
v -213.575 240.08 52.4986
v -213.575 240.08 111.209
v -213.575 240.08 -55.6233
v -154.522 240.08 -55.6233
v 143.791 240.08 111.209
v 143.791 240.08 52.4986
v 89.0774 240.08 -55.6233
v 143.791 240.08 -55.6233
v -38.6997 225.042 -55.6233
v -38.3741 240.08 -55.6233
v -154.522 225.042 -55.6233
v 89.0774 225.042 52.4986
v 89.0774 225.042 -55.6233
v -154.522 225.042 52.4986
v 10.3008 79.9624 -55.6233
v 10.2645 64.9242 -55.6233
v -37.1221 79.9624 -67.5973
v -37.1221 79.9624 -114.334
v 12.1718 160.273 -55.6233
v 12.1718 145.234 -55.6233
v -38.6104 160.273 -67.5794
v -36.9071 160.273 -114.334
v 10.7875 240.08 -55.6233
v 11.1132 225.042 -55.6233
v -38.3741 240.08 -68.3022
v -38.3741 240.08 -114.334
v -37.1221 79.9624 -55.6233
v -37.1221 64.9294 -55.6233
v -213.575 0.33519 -114.333
v -213.575 0.335205 -69.2263
v -37.0083 0.335205 -67.6595
v -37.0083 0.33519 -114.333
v -37.0083 0.335205 -38.4391
v -37.0083 0.33522 111.209
v 9.82369 0.33522 111.209
v 9.82369 0.335205 -38.4391
v 9.82369 -13.3041 -67.6595
v -37.0083 -13.3041 -67.6595
v -213.575 0.335205 -37.0284
v -213.575 0.33522 111.209
v 143.791 0.33522 111.209
v 143.791 0.335205 -37.0284
v 9.82369 -13.3041 -38.4391
v -37.0083 -13.3041 -38.4391

# 148 UV coordinates
vt 0.245259 0.293479 0
vt 0.2477 0.249223 0
vt 0.377596 0.247536 0
vt 0.379523 0.291273 0
vt 0.0347243 0.841108 0
vt 0.0781077 0.839429 0
vt 0.0790462 0.921682 0
vt 0.0358606 0.923244 0
vt 0.0320124 0.370871 0
vt 0.0769912 0.370871 0
vt 0.0771379 0.585725 0
vt 0.032044 0.585925 0
vt 0.0325612 0.722512 0
vt 0.103165 0.724118 0
vt 0.285427 0.584985 0
vt 0.373782 0.586104 0
vt 0.372088 0.839041 0
vt 0.284033 0.837886 0
vt 0.286231 0.372649 0
vt 0.374959 0.373935 0
vt 0.121951 0.370927 0
vt 0.122255 0.585377 0
vt 0.371628 0.922611 0
vt 0.283711 0.921397 0
vt 0.121151 0.837364 0
vt 0.122056 0.920469 0
vt 0.965213 0.787551 0
vt 0.938098 0.787689 0
vt 0.938656 0.62112 0
vt 0.96577 0.621211 0
vt 0.939234 0.448251 0
vt 0.966348 0.448342 0
vt 0.966091 0.960419 0
vt 0.93898 0.960557 0
vt 0.501022 0.0188461 0
vt 0.499706 0.0649062 0
vt 0.421024 0.0640875 0
vt 0.421977 0.0180787 0
vt 0.917537 0.0290398 0
vt 0.915639 0.0710054 0
vt 0.837377 0.0695118 0
vt 0.839734 0.0272858 0
vt 0.615487 0.0205419 0
vt 0.609449 0.0936316 0
vt 0.834652 0.273686 0
vt 0.835906 0.362005 0
vt 0.496595 0.364966 0
vt 0.495973 0.275909 0
vt 0.91595 0.27327 0
vt 0.917537 0.361315 0
vt 0.914372 0.112822 0
vt 0.834915 0.111586 0
vt 0.419704 0.365289 0
vt 0.419039 0.275856 0
vt 0.498255 0.110719 0
vt 0.420248 0.109913 0
vt 0.334229 0.981728 0
vt 0.334229 0.945635 0
vt 0.489922 0.945635 0
vt 0.489922 0.981728 0
vt 0.967055 0.36876 0
vt 0.994169 0.36876 0
vt 0.994169 0.54163 0
vt 0.967055 0.54163 0
vt 0.99223 0.17309 0
vt 0.965116 0.17309 0
vt 0.965116 0.000220152 0
vt 0.99223 0.000220152 0
vt 0.333643 0.945635 0
vt 0.333643 0.981728 0
vt 0.006439 0.981728 0
vt 0.00643897 0.945635 0
vt 0.489744 0.831389 0
vt 0.533108 0.829874 0
vt 0.534056 0.904148 0
vt 0.490883 0.905562 0
vt 0.486801 0.406324 0
vt 0.531824 0.406324 0
vt 0.531855 0.489669 0
vt 0.486815 0.489777 0
vt 0.487608 0.724965 0
vt 0.557061 0.726068 0
vt 0.740677 0.490008 0
vt 0.829234 0.49106 0
vt 0.826818 0.829194 0
vt 0.738686 0.828316 0
vt 0.741027 0.407614 0
vt 0.829749 0.4088 0
vt 0.576793 0.406425 0
vt 0.576793 0.489465 0
vt 0.826397 0.904714 0
vt 0.738427 0.903718 0
vt 0.576162 0.828046 0
vt 0.577057 0.90304 0
vt 0.937561 0.0163845 0
vt 0.964675 0.000220152 0
vt 0.964675 0.117421 0
vt 0.937561 0.117421 0
vt 0.965116 0.17353 0
vt 0.99223 0.17353 0
vt 0.99223 0.3464 0
vt 0.965116 0.3464 0
vt 0.964675 0.290291 0
vt 0.937561 0.290291 0
vt 0.49697 0.970785 0
vt 0.49697 0.934692 0
vt 0.824173 0.934692 0
vt 0.824173 0.970785 0
vt 0.9395 0.36876 0
vt 0.966614 0.368814 0
vt 0.103908 0.646528 0
vt 0.0321083 0.647056 0
vt 0.824759 0.970785 0
vt 0.824759 0.934692 0
vt 0.92806 0.934692 0
vt 0.92806 0.970785 0
vt 0.687481 0.0933715 0
vt 0.684565 0.0222893 0
vt 0.994169 0.62107 0
vt 0.967055 0.62107 0
vt 0.967055 0.542071 0
vt 0.994169 0.558235 0
vt 0.557784 0.653779 0
vt 0.487062 0.654453 0
vt 0.122697 0.646091 0
vt 0.121085 0.725366 0
vt 0.688963 0.111321 0
vt 0.608504 0.112944 0
vt 0.57764 0.653434 0
vt 0.576024 0.727187 0
vt 0.966614 0.999413 0
vt 0.939512 0.99978 0
vt 0.028708 0.290942 0
vt 0.0303268 0.24793 0
vt 0.203005 0.249575 0
vt 0.202729 0.293384 0
vt 0.200742 0.222219 0
vt 0.205943 0.0812702 0
vt 0.24399 0.0813313 0
vt 0.246491 0.222237 0
vt 0.231227 0.241205 0
vt 0.216597 0.239555 0
vt 0.0304075 0.222116 0
vt 0.0317728 0.0806435 0
vt 0.375046 0.0806436 0
vt 0.377021 0.220946 0
vt 0.232696 0.232218 0
vt 0.217943 0.230504 0

# 34 vertex normals
vn -8.19058e-11 1 -1.62921e-07
vn -3.68318e-08 1 -1.62921e-07
vn 1.46476e-08 1 -1.62921e-07
vn -4.97185e-08 1 -1.62921e-07
vn 0 1 -1.62921e-07
vn 0 -4.03195e-07 -1
vn -1 0 -0
vn 0.999886 0.0150968 1.94575e-07
vn -7.62451e-08 1 -1.62921e-07
vn 7.06418e-08 1 -1.62921e-07
vn -1.00465e-07 1 -1.62921e-07
vn 0 1.62921e-07 1
vn 1 0 0
vn 0 -1.62921e-07 -1
vn 7.36271e-08 1 -1.62921e-07
vn -6.82163e-08 1 -1.62921e-07
vn -3.43836e-07 1 -1.62921e-07
vn 3.71108e-07 1 -1.62921e-07
vn 0 -1.78809e-07 1
vn 0 6.65944e-07 1
vn 1.33919e-07 1 -1.62921e-07
vn -1.85496e-07 1 -1.62921e-07
vn 9.15369e-08 1 -1.62921e-07
vn 7.32379e-09 1 -1.62921e-07
vn -1.84159e-08 1 -1.62921e-07
vn 3.53209e-08 1 -1.62921e-07
vn -3.81226e-08 1 -1.62921e-07
vn -2.06026e-07 1 -1.62921e-07
vn 2.22368e-07 1 -1.62921e-07
vn 6.21447e-11 1 -1.62921e-07
vn 8.99177e-11 1 -1.62921e-07
vn 8.7222e-11 1 -1.62921e-07
vn -1.1851e-10 1 -1.62921e-07
vn -1.14957e-10 1 -1.62921e-07

# Mesh 'floors_floors' with 138 faces
g floors_floors
usemtl 1001
f 1/1/1 2/2/1 3/3/1
f 3/3/1 4/4/1 1/1/1
f 5/5/2 6/6/2 7/7/2
f 7/7/2 8/8/2 5/5/2
f 9/9/3 10/10/3 11/11/3
f 11/11/3 12/12/3 9/9/3
f 13/13/4 14/14/4 6/6/4
f 6/6/4 5/5/4 13/13/4
f 15/15/5 16/16/5 17/17/5
f 17/17/5 18/18/5 15/15/5
f 19/19/5 20/20/5 16/16/5
f 16/16/5 15/15/5 19/19/5
f 21/21/5 19/19/5 15/15/5
f 15/15/5 22/22/5 21/21/5
f 18/18/5 17/17/5 23/23/5
f 23/23/5 24/24/5 18/18/5
f 25/25/5 18/18/5 24/24/5
f 24/24/5 26/26/5 25/25/5
f 27/27/6 15/28/6 18/29/6
f 18/29/6 28/30/6 27/27/6
f 28/30/7 18/29/7 25/31/7
f 25/31/7 29/32/7 28/30/7
f 30/33/8 22/34/8 15/28/8
f 15/28/8 27/27/8 30/33/8
f 31/35/9 32/36/9 33/37/9
f 33/37/9 34/38/9 31/35/9
f 35/39/10 36/40/10 37/41/10
f 37/41/10 38/42/10 35/39/10
f 39/43/11 40/44/11 32/36/11
f 32/36/11 31/35/11 39/43/11
f 41/45/5 42/46/5 43/47/5
f 43/47/5 44/48/5 41/45/5
f 45/49/5 46/50/5 42/46/5
f 42/46/5 41/45/5 45/49/5
f 47/51/5 45/49/5 41/45/5
f 41/45/5 48/52/5 47/51/5
f 44/48/5 43/47/5 49/53/5
f 49/53/5 50/54/5 44/48/5
f 51/55/5 44/48/5 50/54/5
f 50/54/5 52/56/5 51/55/5
f 53/57/12 54/58/12 48/59/12
f 48/59/12 55/60/12 53/57/12
f 56/61/7 44/62/7 51/63/7
f 51/63/7 57/64/7 56/61/7
f 55/65/13 48/66/13 41/67/13
f 41/67/13 58/68/13 55/65/13
f 58/69/14 41/70/14 44/71/14
f 44/71/14 56/72/14 58/69/14
f 59/73/15 60/74/15 61/75/15
f 61/75/15 62/76/15 59/73/15
f 63/77/16 64/78/16 65/79/16
f 65/79/16 66/80/16 63/77/16
f 67/81/5 68/82/5 60/74/5
f 60/74/5 59/73/5 67/81/5
f 69/83/5 70/84/5 71/85/5
f 71/85/5 72/86/5 69/83/5
f 73/87/17 74/88/17 70/84/17
f 70/84/17 69/83/17 73/87/17
f 75/89/5 73/87/5 69/83/5
f 69/83/5 76/90/5 75/89/5
f 72/86/18 71/85/18 77/91/18
f 77/91/18 78/92/18 72/86/18
f 79/93/5 72/86/5 78/92/5
f 78/92/5 80/94/5 79/93/5
f 81/95/19 82/96/19 76/97/19
f 76/97/19 83/98/19 81/95/19
f 84/99/7 72/100/7 79/101/7
f 79/101/7 85/102/7 84/99/7
f 83/98/13 76/97/13 69/103/13
f 69/103/13 86/104/13 83/98/13
f 86/105/14 69/106/14 72/107/14
f 72/107/14 84/108/14 86/105/14
f 29/32/20 25/31/20 87/109/20
f 87/109/20 88/110/20 29/32/20
f 12/12/5 11/11/5 89/111/5
f 89/111/5 90/112/5 12/12/5
f 90/112/5 89/111/5 14/14/5
f 14/14/5 13/13/5 90/112/5
f 57/113/12 51/114/12 91/115/12
f 91/115/12 92/116/12 57/113/12
f 38/42/21 37/41/21 93/117/21
f 93/117/21 94/118/21 38/42/21
f 94/118/5 93/117/5 40/44/5
f 40/44/5 39/43/5 94/118/5
f 85/119/12 79/120/12 95/121/12
f 95/121/12 96/122/12 85/119/12
f 66/80/5 65/79/5 97/123/5
f 97/123/5 98/124/5 66/80/5
f 98/124/5 97/123/5 68/82/5
f 68/82/5 67/81/5 98/124/5
f 11/11/22 22/22/22 99/125/22
f 99/125/22 89/111/22 11/11/22
f 14/14/23 87/126/23 25/25/23
f 25/25/23 6/6/23 14/14/23
f 10/10/24 21/21/24 22/22/24
f 22/22/24 11/11/24 10/10/24
f 6/6/25 25/25/25 26/26/25
f 26/26/25 7/7/25 6/6/25
f 37/41/5 48/52/5 54/127/5
f 54/127/5 93/117/5 37/41/5
f 40/44/5 91/128/5 51/55/5
f 51/55/5 32/36/5 40/44/5
f 36/40/26 47/51/26 48/52/26
f 48/52/26 37/41/26 36/40/26
f 32/36/27 51/55/27 52/56/27
f 52/56/27 33/37/27 32/36/27
f 65/79/5 76/90/5 82/129/5
f 82/129/5 97/123/5 65/79/5
f 68/82/5 95/130/5 79/93/5
f 79/93/5 60/74/5 68/82/5
f 64/78/28 75/89/28 76/90/28
f 76/90/28 65/79/28 64/78/28
f 60/74/29 79/93/29 80/94/29
f 80/94/29 61/75/29 60/74/29
f 100/131/12 99/132/12 22/34/12
f 22/34/12 30/33/12 100/131/12
f 101/133/30 102/134/30 103/135/30
f 103/135/30 104/136/30 101/133/30
f 104/136/5 103/135/5 2/2/5
f 2/2/5 1/1/5 104/136/5
f 105/137/5 106/138/5 107/139/5
f 107/139/5 108/140/5 105/137/5
f 109/141/12 2/2/12 103/135/12
f 103/135/12 110/142/12 109/141/12
f 111/143/31 112/144/31 106/138/31
f 106/138/31 105/137/31 111/143/31
f 102/134/32 111/143/32 105/137/32
f 105/137/32 103/135/32 102/134/32
f 108/140/33 107/139/33 113/145/33
f 113/145/33 114/146/33 108/140/33
f 2/2/34 108/140/34 114/146/34
f 114/146/34 3/3/34 2/2/34
f 115/147/7 108/140/7 2/2/7
f 2/2/7 109/141/7 115/147/7
f 110/142/13 103/135/13 105/137/13
f 105/137/13 116/148/13 110/142/13
f 116/148/14 105/137/14 108/140/14
f 108/140/14 115/147/14 116/148/14

